<svg width="18" height="18" viewBox="0 0 18 18" fill="none" xmlns="http://www.w3.org/2000/svg">
<path d="M16.0714 0H1.92857C0.863839 0 0 0.839844 0 1.875V15.625C0 16.6602 0.863839 17.5 1.92857 17.5H16.0714C17.1362 17.5 18 16.6602 18 15.625V1.875C18 0.839844 17.1362 0 16.0714 0ZM14.1067 6.20312C14.1147 6.3125 14.1147 6.42578 14.1147 6.53516C14.1147 9.92188 11.4629 13.8242 6.61741 13.8242C5.12277 13.8242 3.73661 13.4023 2.57143 12.6758C2.78437 12.6992 2.98929 12.707 3.20625 12.707C4.43973 12.707 5.57277 12.3008 6.47679 11.6133C5.31964 11.5898 4.34732 10.8516 4.01384 9.83594C4.41964 9.89453 4.78527 9.89453 5.20312 9.78906C3.99777 9.55078 3.09375 8.51953 3.09375 7.27344V7.24219C3.4433 7.43359 3.85312 7.55078 4.28304 7.56641C3.9216 7.33267 3.62531 7.01557 3.42059 6.64342C3.21588 6.27127 3.10911 5.85563 3.10982 5.43359C3.10982 4.95703 3.23839 4.51953 3.46741 4.14062C4.76518 5.69531 6.71384 6.71094 8.89955 6.82031C8.52589 5.08203 9.86384 3.67188 11.471 3.67188C12.2304 3.67188 12.9134 3.98047 13.3955 4.48047C13.9902 4.37109 14.5607 4.15625 15.067 3.86328C14.8701 4.45703 14.4563 4.95703 13.9098 5.27344C14.4402 5.21875 14.9545 5.07422 15.4286 4.875C15.071 5.38672 14.621 5.83984 14.1067 6.20312Z" fill="white"/>
</svg>
